# xmcd
#
# Track frame offsets:
#	150
#	18486
#	28006
#	45851
#	59752
#	75198
#
# Disc length: 1096 seconds
#
# Revision: 0
# Processed by: cddbd v1.4PL0 Copyright (c) Steve Scherf et al.
# Submitted via: dBpowerAMP V4.0
#
DISCID=3c044606
DTITLE=The Frustrated Bachelors - The KCOU Sessions
DYEAR=1900
DGENRE=
TTITLE0=In August
TTITLE1=Washington Street
TTITLE2=Wonderful Anymore
TTITLE3=Miss Smith
TTITLE4=Until Then
TTITLE5=Yesterday's Flowers
EXTD=
EXTT0=
EXTT1=
EXTT2=
EXTT3=
EXTT4=
EXTT5=
PLAYORDER=
